<?xml version="1.0" encoding="UTF-8" standalone="no"?>
<!-- Created with Inkscape (http://www.inkscape.org/) -->

<svg
   width="47.217449mm"
   height="32.620346mm"
   viewBox="0 0 47.217449 32.620346"
   version="1.1"
   id="svg5"
   xmlns:inkscape="http://www.inkscape.org/namespaces/inkscape"
   xmlns:sodipodi="http://sodipodi.sourceforge.net/DTD/sodipodi-0.dtd"
   xmlns="http://www.w3.org/2000/svg"
   xmlns:svg="http://www.w3.org/2000/svg">
  <sodipodi:namedview
     id="namedview7"
     pagecolor="#ffffff"
     bordercolor="#000000"
     borderopacity="0.25"
     inkscape:showpageshadow="2"
     inkscape:pageopacity="0.0"
     inkscape:pagecheckerboard="0"
     inkscape:deskcolor="#d1d1d1"
     inkscape:document-units="mm"
     showgrid="false" />
  <defs
     id="defs2" />
  <g
     inkscape:label="Layer 1"
     inkscape:groupmode="layer"
     id="layer1"
     transform="translate(-47.967595,-40.687896)">
    <g
       id="g468"
       transform="matrix(0.01803312,0,0,0.0131671,142.40084,67.846112)"
       inkscape:export-filename="farmdb.svg"
       inkscape:export-xdpi="96.036186"
       inkscape:export-ydpi="96.036186">
      <g
         id="g1017"
         transform="matrix(2.9143593,0,0,3.8433739,-4971.536,-2197.0974)"
         inkscape:export-filename="logofarm.png"
         inkscape:export-xdpi="96"
         inkscape:export-ydpi="96">
        <g
           id="g1323">
          <text
             xml:space="preserve"
             style="font-size:4.93889px;fill:#000000;stroke-width:0.264583"
             x="54.975922"
             y="58.530281"
             id="text113"
             transform="matrix(32.574165,0,0,36.888281,-1885.535,-1481.3651)"><tspan
               sodipodi:role="line"
               id="tspan111"
               style="font-style:normal;font-variant:normal;font-weight:bold;font-stretch:normal;font-size:4.93889px;font-family:Inter;-inkscape-font-specification:'Inter Bold';fill:#00ff00;stroke-width:0.264583"
               x="54.975922"
               y="58.530281">JAMSTACK</tspan></text>
          <path
             d="M 542.5,280 H 560 C 560,128.49 438.99,40.3 433.83,36.64 l -10.164,14.227 c 1.1875,0.85938 118.83,86.512 118.83,229.14 z"
             id="path949"
             style="fill:#008000" />
          <path
             d="m 274.16,131.25 h 17.5 v 17.5 h -17.5 z"
             id="path951"
             style="fill:#008000" />
          <path
             d="m 306.25,131.25 h 17.5 v 17.5 h -17.5 z"
             id="path953"
             style="fill:#008000" />
          <path
             d="m 148.75,131.25 h 109.61 v 17.5 H 148.75 Z"
             id="path955"
             style="fill:#008000" />
          <path
             d="m 148.75,166.25 h 17.5 v 17.5 h -17.5 z"
             id="path957"
             style="fill:#008000" />
          <path
             d="m 218.75,166.25 h 105 v 17.5 h -105 z"
             id="path959"
             style="fill:#008000" />
          <path
             d="m 183.75,166.25 h 17.5 v 17.5 h -17.5 z"
             id="path961"
             style="fill:#008000" />
          <path
             d="m 212.91,455 h 17.5 v 17.5 h -17.5 z"
             id="path963"
             style="fill:#008000" />
          <path
             d="m 245,455 h 17.5 v 17.5 H 245 Z"
             id="path965"
             style="fill:#008000" />
          <path
             d="m 157.5,455 h 39.609 v 17.5 H 157.5 Z"
             id="path967"
             style="fill:#008000" />
          <path
             d="m 157.5,420 h 105 v 17.5 h -105 z"
             id="path969"
             style="fill:#008000" />
          <path
             d="m 464.71,302.98 c -12.461,-12.512 -29.391,-19.555 -47.051,-19.574 -17.66,-0.0195 -34.602,6.9883 -47.09,19.477 -12.488,12.488 -19.496,29.434 -19.477,47.094 0.0156,17.66 7.0586,34.586 19.574,47.051 l 12.371,-12.371 v -0.004 c -9.1875,-9.1875 -14.348,-21.652 -14.348,-34.648 0,-12.992 5.1602,-25.457 14.352,-34.645 9.1875,-9.1914 21.652,-14.352 34.648,-14.352 12.992,0 25.457,5.1602 34.645,14.352 9.1914,9.1875 14.355,21.652 14.355,34.645 0,12.996 -5.1641,25.461 -14.352,34.648 l 12.371,12.371 v 0.004 c 12.453,-12.48 19.445,-29.395 19.445,-47.023 0,-17.628 -6.9922,-34.543 -19.445,-47.023 z"
             id="path971"
             style="fill:#008000" />
          <path
             d="m 578.55,473.74 -70.551,-70.367 c 16.898,-28.711 19.215,-63.727 6.2461,-94.414 1.3047,-9.5977 1.9727,-19.273 2.0039,-28.961 0,-152.15 -155.39,-240.22 -162.01,-243.9 -2.6406,-1.4648 -5.8516,-1.4648 -8.4961,0 -28.113,16.719 -53.996,36.93 -77.035,60.148 h -128.71 c -6.9609,0 -13.641,2.7656 -18.562,7.6875 -4.921,4.9219 -7.6875,11.602 -7.6875,18.562 v 70 c 0,6.9609 2.7656,13.641 7.6875,18.562 4.9219,4.921 11.602,7.6875 18.562,7.6875 h 52.684 c -5.8438,19.895 -8.8516,40.516 -8.9336,61.25 0.21875,32.531 7.25,64.652 20.641,94.297 l -7.6484,10.703 h -47.992 c -6.9609,0 -13.641,2.7656 -18.562,7.6875 -4.921,4.9219 -7.6875,11.602 -7.6875,18.562 v 70 c 0,6.9609 2.7656,13.641 7.6875,18.562 4.9219,4.921 11.602,7.6875 18.562,7.6875 h 122.5 c 4.793,-0.0156 9.4883,-1.3477 13.574,-3.8477 4.0859,-2.5 7.4102,-6.0781 9.6055,-10.336 15.895,14.438 32.957,27.535 51.012,39.156 2.8008,1.7109 6.3242,1.7109 9.125,0 34.629,-22.582 65.77,-50.102 92.438,-81.691 8.4102,-2.4766 16.477,-6.0039 24.008,-10.5 l 70.43,70.543 c 4.8906,5.0625 11.613,7.9492 18.656,8.0078 7.0391,0.0625 13.809,-2.7109 18.785,-7.6914 4.9805,-4.9805 7.7461,-11.75 7.6836,-18.789 -0.0625,-7.043 -2.9492,-13.762 -8.0156,-18.652 z M 355.82,411.877 c -16.41,-16.41 -25.625,-38.664 -25.625,-61.871 0,-23.207 9.2188,-45.461 25.629,-61.867 16.41,-16.41 38.664,-25.629 61.871,-25.629 23.203,0 45.461,9.2188 61.871,25.629 16.406,16.406 25.629,38.66 25.629,61.867 0,23.207 -9.2188,45.461 -25.625,61.871 -16.426,16.383 -38.68,25.582 -61.879,25.582 -23.199,-0.004 -45.449,-9.2031 -61.871,-25.59 z m 58.172,-247.54 c 7.6836,4.4375 8.1641,10 8.4609,21.176 0.0703,2.7031 0.21875,5.5547 0.48047,8.4531 l -64.184,21.395 v -155.86 c 16.07,10.727 31.34,22.613 45.684,35.559 -6.6133,4.3438 -12.191,10.09 -16.336,16.828 -14.168,25.059 6.3945,41.238 25.891,52.445 z m 77.945,111.41 -0.004,0.004 c -17.285,-17.238 -40.027,-27.918 -64.332,-30.215 -24.301,-2.3008 -48.645,3.9336 -68.852,17.621 v -29.363 l 69.238,-23.082 c 7.0977,10.309 18.723,16.57 31.238,16.824 5.0117,0.54297 9.9336,1.7188 14.648,3.5 3.1562,1.6602 5.9492,3.9336 8.207,6.6953 2.4766,2.7344 5.2109,5.2227 8.1641,7.4375 1.6094,1.1445 3.7031,2.4141 6.0039,3.7266 h -0.004 c 1.6523,10.285 2.4883,20.684 2.5039,31.098 0,1.0508 -0.0977,2.1094 -0.11328,3.1602 -2.1094,-2.5391 -4.3125,-5.0234 -6.6953,-7.4023 z m -46.48,-70.875 33.949,-11.312 h -0.004 c 4.0352,8.8438 7.4883,17.938 10.336,27.23 -2.625,-2.3828 -5.6133,-4.332 -8.8477,-5.7812 -6.0898,-2.4219 -12.477,-4.0273 -18.988,-4.7812 -5.875,-0.18359 -11.582,-2.0352 -16.449,-5.3359 z m 25.996,-27.125 -31.402,10.5 c 0,-1.0586 -0.0781,-2.1172 -0.11328,-3.2109 -0.28906,-11.121 -0.69141,-26.336 -17.203,-35.875 -26.855,-15.496 -22.75,-22.793 -19.426,-28.656 l -0.004,0.004 c 3.6562,-5.3984 8.5195,-9.8711 14.203,-13.066 21.266,20.734 39.438,44.426 53.949,70.344 z m -130.2,-118.25 v 38.344 c -2.8047,-1.0312 -5.7617,-1.5703 -8.75,-1.5938 h -38.359 c 14.758,-13.414 30.504,-25.699 47.109,-36.75 z m -210,133 v -70 c 0,-4.832 3.918,-8.75 8.75,-8.75 h 192.5 c 2.3203,0 4.5469,0.92188 6.1875,2.5625 1.6406,1.64062 2.5625,3.8672 2.5625,6.1875 v 70 c 0,2.3203 -0.92188,4.5469 -2.5625,6.1875 -1.64062,1.6406 -3.8672,2.5625 -6.1875,2.5625 h -26.25 c -4.832,0 -8.75,3.918 -8.75,8.75 v 33.949 l -27.887,-39.035 v 0.004 c -1.6406,-2.3008 -4.2891,-3.6641 -7.1133,-3.668 h -122.5 c -4.832,0 -8.75,-3.918 -8.75,-8.75 z m 126.74,26.25 41.125,57.582 c 2.2109,3.1055 6.1719,4.4258 9.8008,3.2656 3.6289,-1.1641 6.0898,-4.5391 6.082,-8.3477 v -52.5 h 17.5 c 2.9883,-0.0273 5.9492,-0.57422 8.75,-1.6094 v 61.047 c -9.4766,10.055 -16.859,21.895 -21.719,34.828 l -12.32,-4.1406 c 0.21484,-6.0195 -1.1914,-11.984 -4.0742,-17.273 -6.5977,-10.641 -17.422,-17.961 -29.75,-20.125 -20.23,-5.0586 -22.602,-8.918 -27.316,-16.625 h -0.004 c -3.4102,-5.8789 -7.5664,-11.297 -12.363,-16.117 -6.2617,-7.4336 -15.094,-12.234 -24.734,-13.449 0.62109,-2.2148 1.3047,-4.375 1.9961,-6.6133 z m -53.707,26.695 2.5039,-2.457 c 1.0234,-0.58594 5.9766,-0.33203 14.516,8.207 3.8242,3.8594 7.1289,8.2031 9.8359,12.914 6.7383,10.953 12.645,18.051 37.984,24.387 7.4766,1.1172 14.18,5.2227 18.574,11.375 0.51953,0.93359 0.93359,1.9258 1.2344,2.9492 l -87.422,-29.051 c 0.25391,-9.4961 1.1797,-18.961 2.7734,-28.324 z m -2.625,46.82 113.04,37.609 c -6.4453,33.137 3.4375,67.348 26.555,91.945 v 86.688 c -15.363,-11.086 -29.977,-23.172 -43.75,-36.184 v -61.074 c 0,-6.9609 -2.7656,-13.641 -7.6875,-18.562 -4.9219,-4.921 -11.602,-7.6875 -18.562,-7.6875 h -17.5 v -52.5 c -0.004,-3.8008 -2.4609,-7.1602 -6.0781,-8.3203 -3.6211,-1.1602 -7.5742,0.14844 -9.7852,3.2383 l -21.516,30.125 c -8.2812,-20.863 -13.25,-42.895 -14.727,-65.293 z m 78.34,188.98 c 0,2.3203 -0.92188,4.5469 -2.5625,6.1875 -1.64062,1.6406 -3.8672,2.5625 -6.1875,2.5625 h -122.5 c -4.832,0 -8.75,-3.918 -8.75,-8.75 v -70 c 0,-4.832 3.918,-8.75 8.75,-8.75 h 52.5 c 2.8242,-0.004 5.4727,-1.3672 7.1133,-3.668 l 27.887,-39.031 v 33.949 c 0,2.3203 0.92188,4.5469 2.5625,6.1875 1.64062,1.6406 3.8672,2.5625 6.1875,2.5625 h 26.25 c 2.3203,0 4.5469,0.92188 6.1875,2.5625 1.6406,1.64062 2.5625,3.8672 2.5625,6.1875 z m 78.75,27.238 v -71.652 c 17.387,11.809 37.922,18.117 58.941,18.113 0.75391,0 1.5156,-0.0859 2.2656,-0.10547 -18.668,19.77 -39.16,37.73 -61.207,53.645 z m 207.44,-9.9922 c -3.418,3.4102 -8.9492,3.4102 -12.363,0 l -68.32,-68.434 c 2.1953,-1.8633 4.375,-3.7461 6.4414,-5.8203 2.0664,-2.0742 3.9453,-4.2344 5.8086,-6.4219 l 68.441,68.312 c 3.4102,3.4141 3.4102,8.9492 0,12.363 z"
             id="path973"
             style="fill:#008000" />
          <path
             d="m 417.71,316.85 c -6.9609,0 -13.637,2.7656 -18.559,7.6875 -4.9258,4.9219 -7.6914,11.598 -7.6914,18.562 h 17.5 c 0,-3.5391 2.1328,-6.7305 5.4023,-8.0859 3.2695,-1.3555 7.0352,-0.60547 9.5352,1.8984 2.5039,2.5 3.2539,6.2656 1.8984,9.5352 -1.3555,3.2695 -4.5469,5.4023 -8.0859,5.4023 -4.832,0 -8.75,3.918 -8.75,8.75 v 17.035 h 17.5 v -9.7812 c 7.8555,-2.7734 13.926,-9.1055 16.363,-17.066 2.4414,-7.9609 0.95703,-16.609 -3.9961,-23.305 -4.9531,-6.6914 -12.789,-10.641 -21.117,-10.633 z"
             id="path975"
             style="fill:#008000" />
          <path
             d="m 408.96,391.22 h 17.5 v 18.805 h -17.5 z"
             id="path977"
             style="fill:#008000" />
        </g>
      </g>
    </g>
  </g>
</svg>
